<?xml version="1.0" standalone="no"?>
<!DOCTYPE svg PUBLIC "-//W3C//DTD SVG 20010904//EN"
 "http://www.w3.org/TR/2001/REC-SVG-20010904/DTD/svg10.dtd">
<svg version="1.0" xmlns="http://www.w3.org/2000/svg"
 width="100.000000pt" height="100.000000pt" viewBox="0 0 100.000000 100.000000"
 preserveAspectRatio="xMidYMid meet">
<metadata>
Created by potrace 1.14, written by Peter Selinger 2001-2017
</metadata>
<g transform="translate(0.000000,100.000000) scale(0.100000,-0.100000)"
fill="#000000" stroke="none">
<path d="M267 894 c-4 -4 -7 -187 -7 -406 l0 -398 65 0 65 0 0 170 0 170 115
0 115 0 0 -170 0 -170 65 0 65 0 -2 403 -3 402 -60 0 -60 0 -3 -207 -2 -208
-115 0 -115 0 -2 208 -3 207 -55 3 c-31 2 -59 0 -63 -4z"/>
</g>
</svg>
